<svg width="14" height="16" viewBox="0 0 14 16" fill="none" xmlns="http://www.w3.org/2000/svg" xmlns:xlink="http://www.w3.org/1999/xlink">
<path d="M11.289,7.041C11.289,9.802 9.05,12.041 6.289,12.041L6.289,14.041C10.155,14.041 13.289,10.907 13.289,7.041L11.289,7.041ZM6.289,12.041C3.528,12.041 1.289,9.802 1.289,7.041L-0.711,7.041C-0.711,10.907 2.423,14.041 6.289,14.041L6.289,12.041ZM1.289,7.041C1.289,4.279 3.528,2.041 6.289,2.041L6.289,0.041C2.423,0.041 -0.711,3.175 -0.711,7.041L1.289,7.041ZM6.289,2.041C9.05,2.041 11.289,4.279 11.289,7.041L13.289,7.041C13.289,3.175 10.155,0.041 6.289,0.041L6.289,2.041Z" fill="#000000"/>
</svg>
